# xmcd
#
# Track frame offsets:
#   150
#   20592
#   40132
#   56336
#   78218
#   98591
#   120539
#
# Disc length: 1848 seconds
#
# Revision: 0
# Processed by: cddbd v1.5.1PL2 Copyright (c) Steve Scherf et al.
# Submitted via: GXTranscoder 2.0.1939
#
DISCID=47073607
DTITLE=Callenish circle - Pitch black effect
DYEAR=2005
DGENRE=Alternative
TTITLE0=this day you regret
TTITLE1=ignorant
TTITLE2=behind lines
TTITLE3=schwarzes licht
TTITLE4=sweet cianide
TTITLE5=blind
TTITLE6=guess again
EXTD=
EXTT0=
EXTT1=
EXTT2=
EXTT3=
EXTT4=
EXTT5=
EXTT6=
PLAYORDER=
